<svg aria-hidden="true" style="width:0;height:0;position:absolute;overflow:hidden" xmlns="http://www.w3.org/2000/svg"><defs><symbol id="icon-Component-1arrow" viewBox="0 0 73 32"><path d="M63.627 16H50.294m13.333 0-5.333 5.333M63.627 16l-5.333-5.333M50.4 16H0"/></symbol></defs><svg aria-hidden="true" style="width:0;height:0;position:absolute;overflow:hidden" xmlns="http://www.w3.org/2000/svg" xmlns:xlink="http://www.w3.org/1999/xlink"><defs><symbol id="icon-facebookicons" viewBox="0 0 32 32"><path d="M0 16c0 8.837 7.163 16 16 16s16-7.163 16-16S24.837 0 16 0 0 7.163 0 16zm16-8c4.4 0 8 3.6 8 8 0 4-2.9 7.4-6.9 8v-5.7H19l.4-2.3h-2.2v-1.5c0-.6.3-1.2 1.3-1.2h1v-2s-.9-.2-1.8-.2c-1.8 0-3 1.1-3 3.1V16h-2v2.3h2v5.6C10.9 23.3 8 20 8 16c0-4.4 3.6-8 8-8z"/></symbol><symbol id="icon-instagramicons" viewBox="0 0 32 32"><path d="M16 18.8c-1.5 0-2.8-1.2-2.8-2.8 0-1.5 1.2-2.8 2.8-2.8 1.5 0 2.8 1.2 2.8 2.8 0 1.5-1.3 2.8-2.8 2.8z"/><path d="M19.4 9.2h-6.8c-.8.1-1.2.2-1.5.3-.4.1-.7.3-1 .6-.237.237-.35.475-.485.762-.036.076-.073.155-.115.238-.015.046-.033.095-.052.148a3.52 3.52 0 0 0-.248 1.353v6.8c.1.8.2 1.2.3 1.5.1.4.3.7.6 1 .237.237.475.349.762.485.076.036.155.073.238.115.046.015.095.033.148.052.286.105.676.247 1.353.247h6.8c.8-.1 1.2-.2 1.5-.3.4-.1.7-.3 1-.6.237-.237.349-.475.485-.762.036-.076.073-.155.115-.238.015-.046.033-.095.052-.148.105-.286.247-.676.247-1.352v-6.8c-.1-.8-.2-1.2-.3-1.5-.1-.4-.3-.7-.6-1-.237-.237-.475-.35-.762-.485-.076-.036-.155-.073-.238-.115-.046-.015-.095-.033-.148-.052A3.519 3.519 0 0 0 19.4 9.2zM16 11.7c-2.4 0-4.3 1.9-4.3 4.3s1.9 4.3 4.3 4.3 4.3-1.9 4.3-4.3-1.9-4.3-4.3-4.3zm5.4-.1a1 1 0 1 1-2 0 1 1 0 0 1 2 0z"/><path d="M0 16c0 8.837 7.163 16 16 16s16-7.163 16-16S24.837 0 16 0 0 7.163 0 16zm12.6-8.3h6.8c.9.1 1.5.2 2 .4.6.3 1 .5 1.5 1s.8 1 1 1.5c.2.5.4 1.1.4 2v6.8c-.1.9-.2 1.5-.4 2-.3.6-.5 1-1 1.5s-1 .8-1.5 1c-.5.2-1.1.4-2 .4h-6.8c-.9-.1-1.5-.2-2-.4-.6-.3-1-.5-1.5-1s-.8-1-1-1.5c-.2-.5-.4-1.1-.4-2v-6.8c.1-.9.2-1.5.4-2 .3-.6.5-1 1-1.5s1-.8 1.5-1c.5-.2 1.1-.4 2-.4z"/></symbol><symbol id="icon-linkedinicons" viewBox="0 0 32 32"><path d="M0 16C0 7.163 7.163 0 16 0s16 7.163 16 16-7.163 16-16 16S0 24.837 0 16zm8.2-2.7V24h3.4V13.3H8.2zM8 9.9c0 1.1.8 1.9 1.9 1.9s1.9-.8 1.9-1.9C11.8 8.8 11 8 9.9 8 8.9 8 8 8.8 8 9.9zM20.6 24h3.2v-6.6c0-3.3-2-4.4-3.9-4.4-1.7 0-2.9 1.1-3.2 1.8v-1.5h-3.2V24h3.4v-5.7c0-1.5 1-2.3 2-2.3s1.7.5 1.7 2.2V24z"/></symbol><symbol id="icon-pinteresticons" viewBox="0 0 32 32"><path d="M0 16c0 8.837 7.163 16 16 16s16-7.163 16-16S24.837 0 16 0 0 7.163 0 16zm8 0c0-4.4 3.6-8 8-8s8 3.6 7.9 7.6c0 4.4-3.6 8-8 8-.8 0-1.6-.1-2.3-.3.3-.5.6-1.1.8-1.7.1-.4.6-2.2.6-2.2.3.5 1.1 1 2 1 2.6 0 4.3-2.4 4.3-5.5 0-2.4-2-4.6-5.1-4.6-3.8 0-5.7 2.7-5.7 5 0 1.4.5 2.6 1.6 3.1.2.1.3 0 .4-.2.1-.1.2-.5.2-.6.071-.141.041-.183-.017-.266a1.086 1.086 0 0 1-.083-.134c-.3-.4-.5-.9-.5-1.6 0-2 1.5-3.8 3.9-3.8 2.1 0 3.3 1.3 3.3 3.1 0 2.4-1 4.3-2.5 4.3-.9 0-1.5-.7-1.3-1.5.084-.417.219-.852.349-1.268.181-.58.351-1.124.351-1.532 0-.7-.4-1.2-1.1-1.2-.8 0-1.5.9-1.5 2.1 0 .8.3 1.3.3 1.3s-.8 3.7-1 4.4c-.1.6-.1 1.2-.1 1.8C10 22.1 8 19.3 8 16z"/></symbol><symbol id="icon-twittericons" viewBox="0 0 32 32"><path d="M0 16c0 8.837 7.163 16 16 16s16-7.163 16-16S24.837 0 16 0 0 7.163 0 16zm22.1-4.5c.7-.1 1.3-.2 1.9-.5-.4.7-1 1.3-1.7 1.7.2 4.7-3.2 9.8-9.3 9.8-1.8 0-3.5-.6-5-1.5 1.7.2 3.5-.3 4.7-1.2-1.5 0-2.7-1-3.1-2.3.5.1 1 0 1.5-.1-1.5-.4-2.6-1.8-2.6-3.3.5.2 1 .4 1.5.4-1.4-1-1.9-2.9-1-4.4 1.7 2 4.1 3.3 6.8 3.4-.5-2 1.1-4 3.2-4 .9 0 1.8.4 2.4 1 .8-.2 1.5-.4 2.1-.8-.2.8-.7 1.4-1.4 1.8z"/></symbol><symbol id="icon-VectorHydra" viewBox="0 0 32 32"><path d="M31.277 12.818c.415 2.398-2.129 1.759-2.129 1.759-1.065-3.003-2.768-2.723-2.768-2.723 1.334.975 1.434 1.804 1.434 1.804-3.552-2.521-8.382-.493-10.22.459-1.031-1.457-3.115-4.717-2.376-6.196.975-1.938 2.959-.829 2.959-.829 4.012-.067 3.788-1.501 3.788-1.501-1.065.829-4.202 0-4.202 0 2.723 0 3.877-1.109 3.877-1.109-2.028.504-4.292-1.658-4.292-1.658-.829-4.247-4.662-2.443-4.662-2.443 2.398-.415 1.759 2.129 1.759 2.129-3.003 1.064-2.723 2.767-2.723 2.767.975-1.333 1.804-1.434 1.804-1.434-2.746 3.866-.101 9.244.684 10.644-1.434.997-4.796 3.193-6.309 2.431-1.939-.975-.829-2.958-.829-2.958-.045-4.011-1.479-3.787-1.479-3.787.829 1.064 0 4.202 0 4.202 0-2.723-1.109-3.877-1.109-3.877.504 2.028-1.659 4.291-1.659 4.291-4.247.829-2.443 4.661-2.443 4.661-.415-2.398 2.129-1.759 2.129-1.759 1.065 3.003 2.768 2.723 2.768 2.723-1.334-.975-1.434-1.804-1.434-1.804 3.754 2.667 8.943.246 10.511-.605 1.053 1.513 3.015 4.628 2.286 6.073-.975 1.938-2.958.829-2.958.829-4.012.045-3.788 1.479-3.788 1.479 1.065-.829 4.202 0 4.202 0-2.723 0-3.877 1.109-3.877 1.109 2.028-.504 4.292 1.658 4.292 1.658.829 4.247 4.662 2.443 4.662 2.443-2.398.414-1.759-2.129-1.759-2.129 3.003-1.064 2.723-2.767 2.723-2.767-.975 1.333-1.804 1.434-1.804 1.434 2.69-3.776.213-9.008-.628-10.543 1.524-1.064 4.606-2.969 6.029-2.252 1.939.975.829 2.958.829 2.958.045 4.011 1.479 3.787 1.479 3.787-.829-1.065 0-4.202 0-4.202 0 2.723 1.109 3.877 1.109 3.877-.504-2.028 1.659-4.291 1.659-4.291 4.27-.818 2.466-4.65 2.466-4.65z"/></symbol><symbol id="icon-youtubeicons" viewBox="0 0 32 32"><path d="m18.6 16-4.2-2.4v4.8l4.2-2.4z"/><path d="M0 16c0 8.837 7.163 16 16 16s16-7.163 16-16S24.837 0 16 0 0 7.163 0 16zm22.2-5.3c.7.2 1.2.7 1.4 1.4.4 1.3.4 3.9.4 3.9s0 2.6-.3 3.9c-.2.7-.7 1.2-1.4 1.4-1.3.3-6.3.3-6.3.3s-5.1 0-6.3-.3c-.7-.2-1.2-.7-1.4-1.4C8 18.6 8 16 8 16s0-2.6.2-3.9c.2-.7.7-1.2 1.4-1.4 1.3-.3 6.3-.3 6.3-.3s5.1 0 6.3.3z"/></symbol></defs><svg aria-hidden="true" style="width:0;height:0;position:absolute;overflow:hidden" xmlns="http://www.w3.org/2000/svg" xmlns:xlink="http://www.w3.org/1999/xlink"><defs><symbol id="icon-Vector-18e" viewBox="0 0 171 32"><path d="M26.462 7.456a1.919 1.919 0 1 1-3.838 0 1.919 1.919 0 0 1 3.838 0z"/></symbol><symbol id="icon-Vector-19q" viewBox="0 0 125 32"><path d="M26.462 7.456a1.919 1.919 0 1 1-3.838 0 1.919 1.919 0 0 1 3.838 0z"/></symbol></defs></svg></svg></svg>