<svg aria-hidden="true" style="position: absolute; width: 0; height: 0; overflow: hidden;" version="1.1" xmlns="http://www.w3.org/2000/svg" xmlns:xlink="http://www.w3.org/1999/xlink">
<defs>
<symbol id="icon-Component-1arrow" viewBox="0 0 73 32">
<path d="M63.627 16h-13.333M63.627 16l-5.333 5.333M63.627 16l-5.333-5.333"></path>
<path d="M50.4 16h-50.4"></path>
</symbol>
</defs>
<svg aria-hidden="true" style="position: absolute; width: 0; height: 0; overflow: hidden;" version="1.1" xmlns="http://www.w3.org/2000/svg" xmlns:xlink="http://www.w3.org/1999/xlink">
<defs>
<symbol id="icon-facebookicons" viewBox="0 0 32 32">
<path  d="M0 16c0 8.837 7.163 16 16 16s16-7.163 16-16c0-8.837-7.163-16-16-16s-16 7.163-16 16zM16 8c4.4 0 8 3.6 8 8 0 4-2.9 7.4-6.9 8v-5.7h1.9l0.4-2.3h-2.2v-1.5c0-0.6 0.3-1.2 1.3-1.2h1v-2c0 0-0.9-0.2-1.8-0.2-1.8 0-3 1.1-3 3.1v1.8h-2v2.3h2v5.6c-3.8-0.6-6.7-3.9-6.7-7.9 0-4.4 3.6-8 8-8z"></path>
</symbol>
<symbol id="icon-instagramicons" viewBox="0 0 32 32">
<path  d="M16 18.8c-1.5 0-2.8-1.2-2.8-2.8 0-1.5 1.2-2.8 2.8-2.8 1.5 0 2.8 1.2 2.8 2.8 0 1.5-1.3 2.8-2.8 2.8z"></path>
<path  d="M19.4 9.2h-6.8c-0.8 0.1-1.2 0.2-1.5 0.3-0.4 0.1-0.7 0.3-1 0.6-0.237 0.237-0.35 0.475-0.485 0.762-0.036 0.076-0.073 0.155-0.115 0.238-0.015 0.046-0.033 0.095-0.052 0.148-0.105 0.286-0.248 0.676-0.248 1.353v6.8c0.1 0.8 0.2 1.2 0.3 1.5 0.1 0.4 0.3 0.7 0.6 1 0.237 0.237 0.475 0.349 0.762 0.485 0.076 0.036 0.155 0.073 0.238 0.115 0.046 0.015 0.095 0.033 0.148 0.052 0.286 0.105 0.676 0.247 1.353 0.247h6.8c0.8-0.1 1.2-0.2 1.5-0.3 0.4-0.1 0.7-0.3 1-0.6 0.237-0.237 0.349-0.475 0.485-0.762 0.036-0.076 0.073-0.155 0.115-0.238 0.015-0.046 0.033-0.095 0.052-0.148 0.105-0.286 0.247-0.676 0.247-1.352v-6.8c-0.1-0.8-0.2-1.2-0.3-1.5-0.1-0.4-0.3-0.7-0.6-1-0.237-0.237-0.475-0.35-0.762-0.485-0.076-0.036-0.155-0.073-0.238-0.115-0.046-0.015-0.095-0.033-0.148-0.052-0.286-0.105-0.676-0.248-1.352-0.248zM16 11.7c-2.4 0-4.3 1.9-4.3 4.3s1.9 4.3 4.3 4.3c2.4 0 4.3-1.9 4.3-4.3s-1.9-4.3-4.3-4.3zM21.4 11.6c0 0.552-0.448 1-1 1s-1-0.448-1-1c0-0.552 0.448-1 1-1s1 0.448 1 1z"></path>
<path  d="M0 16c0 8.837 7.163 16 16 16s16-7.163 16-16c0-8.837-7.163-16-16-16s-16 7.163-16 16zM12.6 7.7h6.8c0.9 0.1 1.5 0.2 2 0.4 0.6 0.3 1 0.5 1.5 1s0.8 1 1 1.5c0.2 0.5 0.4 1.1 0.4 2v6.8c-0.1 0.9-0.2 1.5-0.4 2-0.3 0.6-0.5 1-1 1.5s-1 0.8-1.5 1c-0.5 0.2-1.1 0.4-2 0.4h-6.8c-0.9-0.1-1.5-0.2-2-0.4-0.6-0.3-1-0.5-1.5-1s-0.8-1-1-1.5c-0.2-0.5-0.4-1.1-0.4-2v-6.8c0.1-0.9 0.2-1.5 0.4-2 0.3-0.6 0.5-1 1-1.5s1-0.8 1.5-1c0.5-0.2 1.1-0.4 2-0.4z"></path>
</symbol>
<symbol id="icon-linkedinicons" viewBox="0 0 32 32">
<path  d="M0 16c0-8.837 7.163-16 16-16s16 7.163 16 16c0 8.837-7.163 16-16 16s-16-7.163-16-16zM8.2 13.3v10.7h3.4v-10.7h-3.4zM8 9.9c0 1.1 0.8 1.9 1.9 1.9s1.9-0.8 1.9-1.9c0-1.1-0.8-1.9-1.9-1.9-1 0-1.9 0.8-1.9 1.9zM20.6 24h3.2v-6.6c0-3.3-2-4.4-3.9-4.4-1.7 0-2.9 1.1-3.2 1.8v-1.5h-3.2v10.7h3.4v-5.7c0-1.5 1-2.3 2-2.3s1.7 0.5 1.7 2.2v5.8z"></path>
</symbol>
<symbol id="icon-pinteresticons" viewBox="0 0 32 32">
<path  d="M0 16c0 8.837 7.163 16 16 16s16-7.163 16-16c0-8.837-7.163-16-16-16s-16 7.163-16 16zM8 16c0-4.4 3.6-8 8-8s8 3.6 7.9 7.6c0 4.4-3.6 8-8 8-0.8 0-1.6-0.1-2.3-0.3 0.3-0.5 0.6-1.1 0.8-1.7 0.1-0.4 0.6-2.2 0.6-2.2 0.3 0.5 1.1 1 2 1 2.6 0 4.3-2.4 4.3-5.5 0-2.4-2-4.6-5.1-4.6-3.8 0-5.7 2.7-5.7 5 0 1.4 0.5 2.6 1.6 3.1 0.2 0.1 0.3 0 0.4-0.2 0.1-0.1 0.2-0.5 0.2-0.6 0.071-0.141 0.041-0.183-0.017-0.266-0.024-0.034-0.053-0.076-0.083-0.134-0.3-0.4-0.5-0.9-0.5-1.6 0-2 1.5-3.8 3.9-3.8 2.1 0 3.3 1.3 3.3 3.1 0 2.4-1 4.3-2.5 4.3-0.9 0-1.5-0.7-1.3-1.5 0.084-0.417 0.219-0.852 0.349-1.268 0.181-0.58 0.351-1.124 0.351-1.532 0-0.7-0.4-1.2-1.1-1.2-0.8 0-1.5 0.9-1.5 2.1 0 0.8 0.3 1.3 0.3 1.3s-0.8 3.7-1 4.4c-0.1 0.6-0.1 1.2-0.1 1.8-2.8-1.2-4.8-4-4.8-7.3z"></path>
</symbol>
<symbol id="icon-twittericons" viewBox="0 0 32 32">
<path  d="M0 16c0 8.837 7.163 16 16 16s16-7.163 16-16c0-8.837-7.163-16-16-16s-16 7.163-16 16zM22.1 11.5c0.7-0.1 1.3-0.2 1.9-0.5-0.4 0.7-1 1.3-1.7 1.7 0.2 4.7-3.2 9.8-9.3 9.8-1.8 0-3.5-0.6-5-1.5 1.7 0.2 3.5-0.3 4.7-1.2-1.5 0-2.7-1-3.1-2.3 0.5 0.1 1 0 1.5-0.1-1.5-0.4-2.6-1.8-2.6-3.3 0.5 0.2 1 0.4 1.5 0.4-1.4-1-1.9-2.9-1-4.4 1.7 2 4.1 3.3 6.8 3.4-0.5-2 1.1-4 3.2-4 0.9 0 1.8 0.4 2.4 1 0.8-0.2 1.5-0.4 2.1-0.8-0.2 0.8-0.7 1.4-1.4 1.8z"></path>
</symbol>
<symbol id="icon-VectorHydra" viewBox="0 0 32 32">
<path d="M31.277 12.818c0.415 2.398-2.129 1.759-2.129 1.759-1.065-3.003-2.768-2.723-2.768-2.723 1.334 0.975 1.434 1.804 1.434 1.804-3.552-2.521-8.382-0.493-10.22 0.459-1.031-1.457-3.115-4.717-2.376-6.196 0.975-1.938 2.959-0.829 2.959-0.829 4.012-0.067 3.788-1.501 3.788-1.501-1.065 0.829-4.202 0-4.202 0 2.723 0 3.877-1.109 3.877-1.109-2.028 0.504-4.292-1.658-4.292-1.658-0.829-4.247-4.662-2.443-4.662-2.443 2.398-0.415 1.759 2.129 1.759 2.129-3.003 1.064-2.723 2.767-2.723 2.767 0.975-1.333 1.804-1.434 1.804-1.434-2.746 3.866-0.101 9.244 0.684 10.644-1.434 0.997-4.796 3.193-6.309 2.431-1.939-0.975-0.829-2.958-0.829-2.958-0.045-4.011-1.479-3.787-1.479-3.787 0.829 1.064 0 4.202 0 4.202 0-2.723-1.109-3.877-1.109-3.877 0.504 2.028-1.659 4.291-1.659 4.291-4.247 0.829-2.443 4.661-2.443 4.661-0.415-2.398 2.129-1.759 2.129-1.759 1.065 3.003 2.768 2.723 2.768 2.723-1.334-0.975-1.434-1.804-1.434-1.804 3.754 2.667 8.943 0.246 10.511-0.605 1.053 1.513 3.015 4.628 2.286 6.073-0.975 1.938-2.958 0.829-2.958 0.829-4.012 0.045-3.788 1.479-3.788 1.479 1.065-0.829 4.202 0 4.202 0-2.723 0-3.877 1.109-3.877 1.109 2.028-0.504 4.292 1.658 4.292 1.658 0.829 4.247 4.662 2.443 4.662 2.443-2.398 0.414-1.759-2.129-1.759-2.129 3.003-1.064 2.723-2.767 2.723-2.767-0.975 1.333-1.804 1.434-1.804 1.434 2.69-3.776 0.213-9.008-0.628-10.543 1.524-1.064 4.606-2.969 6.029-2.252 1.939 0.975 0.829 2.958 0.829 2.958 0.045 4.011 1.479 3.787 1.479 3.787-0.829-1.065 0-4.202 0-4.202 0 2.723 1.109 3.877 1.109 3.877-0.504-2.028 1.659-4.291 1.659-4.291 4.27-0.818 2.466-4.65 2.466-4.65z"></path>
</symbol>
<symbol id="icon-youtubeicons" viewBox="0 0 32 32">
<path  d="M18.6 16l-4.2-2.4v4.8l4.2-2.4z"></path>
<path  d="M0 16c0 8.837 7.163 16 16 16s16-7.163 16-16c0-8.837-7.163-16-16-16s-16 7.163-16 16zM22.2 10.7c0.7 0.2 1.2 0.7 1.4 1.4 0.4 1.3 0.4 3.9 0.4 3.9s0 2.6-0.3 3.9c-0.2 0.7-0.7 1.2-1.4 1.4-1.3 0.3-6.3 0.3-6.3 0.3s-5.1 0-6.3-0.3c-0.7-0.2-1.2-0.7-1.4-1.4-0.3-1.3-0.3-3.9-0.3-3.9s0-2.6 0.2-3.9c0.2-0.7 0.7-1.2 1.4-1.4 1.3-0.3 6.3-0.3 6.3-0.3s5.1 0 6.3 0.3z"></path>
</symbol>
</defs>
<svg aria-hidden="true" style="position: absolute; width: 0; height: 0; overflow: hidden;" version="1.1" xmlns="http://www.w3.org/2000/svg" xmlns:xlink="http://www.w3.org/1999/xlink">
<defs>
<symbol id="icon-Vector-18e" viewBox="0 0 171 32">
<path d="M26.462 7.456c0 1.060-0.859 1.919-1.919 1.919s-1.919-0.859-1.919-1.919c0-1.060 0.859-1.919 1.919-1.919s1.919 0.859 1.919 1.919z"></path>
</symbol>
<symbol id="icon-Vector-19q" viewBox="0 0 125 32">
<path d="M26.462 7.456c0 1.060-0.859 1.919-1.919 1.919s-1.919-0.859-1.919-1.919c0-1.060 0.859-1.919 1.919-1.919s1.919 0.859 1.919 1.919z"></path>
</symbol>
</defs>
</svg>
